<svg width="482" height="600" viewBox="0 0 482 600" fill="none" xmlns="http://www.w3.org/2000/svg">
<path d="M415.56 519.417V600H367.205C302.708 600 257.707 572.813 257.707 492.161V368.806H219.903V289.831H257.707V289.621H352.74V289.831H415.001V368.806H352.74V493.279C352.74 511.66 360.566 519.417 381.669 519.417H415.56Z" fill="#D0B683"/>
<path d="M173.855 289.831H78.821V600H173.855V289.831Z" fill="#D0B683"/>
<path d="M0 231.054C0 103.436 103.419 0 231.015 0H250.72C378.317 0 481.735 103.436 481.735 231.054C481.735 231.054 481.456 231.613 481.176 231.613H0.628872C0.628872 231.613 0.0699457 231.334 0.0699457 231.054H0Z" fill="#7C6A50"/>
</svg>
